<svg width="511" height="548" viewBox="0 0 511 548" fill="none" xmlns="http://www.w3.org/2000/svg">
<path d="M346.393 420.633C338.129 430.394 328.135 438.374 320.698 430.291C308.147 416.681 326.302 396.151 335.599 384.194C339.653 378.977 343.63 373.657 347.452 368.26C354.735 357.956 362.921 341.144 375.601 337.58C380.843 336.108 387.842 338.355 390.192 343.313C394.066 351.526 387.61 362.708 383.348 370.274C378.313 379.184 371.753 387.37 365.452 395.402C358.918 403.666 353.185 412.601 346.393 420.633Z" fill="#713728"/>
<path d="M320.181 412.188C314.164 423.473 306.055 433.39 297.068 427.037C281.935 416.346 295.39 392.458 301.949 378.822C304.816 372.857 307.579 366.84 310.187 360.745C315.12 349.124 319.613 330.995 331.26 324.849C336.064 322.318 343.398 323.041 346.729 327.405C352.256 334.611 348.279 346.903 345.722 355.193C342.675 364.955 337.975 374.329 333.507 383.522C328.884 392.948 325.14 402.917 320.181 412.188Z" fill="#713728"/>
<path d="M313.674 317.721C310.445 313.279 303.137 312.375 298.256 314.777C286.454 320.639 280.54 341.454 271.166 355.942C266.414 363.302 259.7 367.744 242.862 362.191C225.689 356.51 187.907 349.95 170.811 355.942C153.715 361.933 256.73 412.498 261.559 416.113C270.391 422.673 278.733 412.963 285.034 401.832C290.225 392.69 294.202 382.825 299.057 373.477C303.757 364.412 308.689 355.167 311.969 345.457C314.758 337.27 319.019 325.081 313.674 317.721Z" fill="#713728"/>
<path d="M403.543 408.134C401.038 398.294 391.354 396.641 381.463 398.914C362.198 403.33 335.237 410.329 316.075 415.106C287.875 422.156 265.665 416.552 236.845 414.874C233.694 414.693 230.544 414.512 227.393 414.331C211.537 387.37 186.978 348.917 168.487 357.052C137.782 370.584 103.202 397.158 79.4952 431.324C67.3576 448.807 123.113 507.275 142.146 484.833C158.106 466.032 192.478 447.542 210.788 444.03C239.634 445.657 268.48 447.31 297.352 448.937C311.375 449.737 323.254 444.417 336.787 441.06C346.058 438.762 355.329 436.437 364.6 434.113C379.217 430.446 407.262 422.724 403.543 408.134Z" fill="#763D2F"/>
<path d="M172.18 356.045C172.18 356.045 200.897 351.861 236.174 376.576C254.432 389.385 282.813 392.587 301.252 389.126C333.094 383.161 355.923 403.485 329.375 414.409C302.827 425.333 244.308 416.733 207.353 427.967L172.18 356.045Z" fill="#763D2F"/>
<path d="M326.87 415.184C326.87 415.184 300.193 422.75 283.045 420.891C265.898 419.006 235.115 409.502 212.725 419.496C200.845 424.79 213.99 422.389 224.94 421.227C235.89 420.064 261.43 422.105 283.794 424.455C306.159 426.805 347.969 415.545 326.87 415.184Z" fill="#713728"/>
<path d="M127.426 127.187C135.69 117.425 145.684 109.445 153.121 117.528C165.672 131.138 147.517 151.668 138.221 163.625C134.166 168.842 130.189 174.162 126.367 179.585C119.11 189.889 110.898 206.701 98.2181 210.265C92.9757 211.737 85.9772 209.49 83.6272 204.532C79.7535 196.319 86.2096 185.137 90.4707 177.571C95.5065 168.661 102.066 160.475 108.367 152.443C114.901 144.153 120.634 135.218 127.426 127.187Z" fill="#713728"/>
<path d="M153.638 135.631C159.655 124.346 167.764 114.455 176.751 120.782C191.884 131.473 178.43 155.361 171.87 168.997C169.004 174.962 166.24 180.979 163.632 187.074C158.7 198.695 154.206 216.824 142.559 222.97C137.756 225.501 130.422 224.778 127.09 220.414C121.564 213.209 125.541 200.916 128.123 192.626C131.17 182.865 135.871 173.464 140.338 164.297C144.935 154.871 148.68 144.902 153.638 135.631Z" fill="#713728"/>
<path d="M160.146 230.098C163.374 234.54 170.682 235.444 175.563 233.042C187.365 227.18 193.279 206.365 202.653 191.877C207.405 184.517 214.119 180.076 230.957 185.628C248.13 191.309 285.912 197.869 303.008 191.877C320.104 185.886 217.089 135.321 212.26 131.706C203.428 125.146 195.086 134.857 188.785 145.987C183.595 155.129 179.618 164.994 174.762 174.343C170.062 183.407 165.13 192.652 161.85 202.362C159.061 210.575 154.8 222.764 160.146 230.098Z" fill="#713728"/>
<path d="M70.2758 139.686C72.7808 149.525 82.465 151.178 92.3301 148.905C111.595 144.489 138.556 137.491 157.718 132.713C185.945 125.663 208.128 131.267 236.948 132.946C240.099 133.126 243.25 133.307 246.426 133.488C262.282 160.449 286.842 198.902 305.332 190.767C336.038 177.235 370.617 150.661 394.324 116.495C406.462 99.0119 350.706 40.5448 331.673 63.0123C315.714 81.8126 281.341 100.303 263.031 103.815C234.185 102.188 205.339 100.536 176.467 98.9086C162.444 98.108 150.565 103.428 137.033 106.785C127.762 109.083 118.49 111.382 109.219 113.732C94.6026 117.373 66.557 125.095 70.2758 139.686Z" fill="#763D2F"/>
<path d="M301.639 191.774C301.639 191.774 272.922 195.958 237.646 171.244C219.388 158.434 191.006 155.232 172.567 158.693C140.751 164.658 117.897 144.334 144.444 133.41C170.992 122.487 229.511 131.086 266.466 119.852L301.639 191.774Z" fill="#763D2F"/>
<path d="M146.949 132.636C146.949 132.636 173.626 125.069 190.774 126.954C207.921 128.839 238.704 138.343 261.094 128.349C272.974 123.055 259.829 125.456 248.879 126.618C237.93 127.781 212.363 125.74 190.025 123.39C167.661 121.015 125.851 132.274 146.949 132.636Z" fill="#713728"/>
<path d="M106.939 204.619C74.3899 235.737 111.656 289.433 143.122 316.135C163.571 331.84 184.021 349.125 206.052 361.701C213.933 366.41 228.084 378.986 237.518 380.536C254.833 385.244 245.399 383.665 259.549 375.827C295.732 352.254 346.065 314.585 355.498 272.178C363.379 234.479 358.662 207.777 320.898 195.231C289.433 185.813 259.549 219.564 237.518 241.557C237.518 241.528 163.571 150.425 106.939 204.619Z" fill="#FBAB17"/>
</svg>
